<?xml version="1.0" encoding="UTF-8"?>
<svg xmlns="http://www.w3.org/2000/svg" xmlns:xlink="http://www.w3.org/1999/xlink" viewBox="0 0 27 27" width="27px" height="27px">
<g id="surface89509616">
<path style=" stroke:none;fill-rule:nonzero;fill:rgb(100%,100%,100%);fill-opacity:1;" d="M 3.28125 13.285156 C 10.347656 10.175781 19.496094 6.382812 20.761719 5.855469 C 24.074219 4.484375 25.089844 4.746094 24.582031 7.789062 C 24.21875 9.976562 23.167969 17.214844 22.332031 21.71875 C 21.835938 24.390625 20.71875 24.707031 18.96875 23.550781 C 18.125 22.996094 13.871094 20.183594 12.949219 19.523438 C 12.105469 18.921875 10.945312 18.199219 12.402344 16.773438 C 12.921875 16.261719 16.320312 13.015625 18.96875 10.492188 C 19.316406 10.160156 18.878906 9.613281 18.480469 9.878906 C 14.910156 12.246094 9.960938 15.535156 9.328125 15.960938 C 8.378906 16.609375 7.464844 16.902344 5.824219 16.433594 C 4.582031 16.078125 3.371094 15.652344 2.902344 15.488281 C 1.085938 14.867188 1.515625 14.058594 3.28125 13.285156 Z M 3.28125 13.285156 "/>
</g>
</svg>
